<?xml version="1.0" ?>
<!-- Скачано с сайта svg4.ru / Downloaded from svg4.ru -->
<svg fill="#000000" width="800px" height="800px" viewBox="0 0 64 64" version="1.1" xml:space="preserve" xmlns="http://www.w3.org/2000/svg" xmlns:xlink="http://www.w3.org/1999/xlink">
<g id="cloudy_sunny"/>
<g id="bright"/>
<g id="cloudy"/>
<g id="high_rainfall"/>
<g id="windy"/>
<g id="rain_with_thunder"/>
<g id="clear_night"/>
<g id="cloudy_night"/>
<g id="moon"/>
<g id="sun"/>
<g id="rainy_night">
<path d="M61,25c0-1.6-0.2-3.2-0.6-4.8c-0.1-0.4-0.5-0.7-0.9-0.8c-0.4,0-0.8,0.3-1,0.7C57.1,24.2,53.3,27,49,27c-5.5,0-10-4.5-10-10   c0-4.3,2.8-8.1,6.9-9.5c0.4-0.1,0.7-0.5,0.7-1c0-0.4-0.3-0.8-0.8-0.9C44.2,5.2,42.6,5,41,5c-10.1,0-18.6,7.5-19.8,17.5   c-2.8,1.5-4.9,3.9-5.9,6.9C8.6,28.5,3,33.7,3,40.1C3,46.1,7.9,51,13.9,51h6.2C20,51.3,20,51.7,20,52c0,3.9,3.1,7,7,7s7-3.1,7-7   c0-0.3,0-0.7-0.1-1h7.9c4.9,0,8.9-3.8,9.2-8.7C57.2,38.8,61,32.2,61,25z M27,57c-2.8,0-5-2.2-5-5c0-2.6,3.1-6.5,5-8.6   c1.9,2,5,6,5,8.6C32,54.8,29.8,57,27,57z M41.8,49h-8.5c-1.5-3.6-5.1-7.2-5.6-7.7c-0.4-0.4-1-0.4-1.4,0c-0.5,0.5-4,4.1-5.6,7.7   h-6.9C9,49,5,45,5,40.1c0-5.5,5-9.9,10.7-8.7c0.5,0.1,1-0.2,1.2-0.7c0.8-3,2.9-5.4,5.6-6.7c0,0,0.1,0,0.1-0.1c1.4-0.6,2.9-1,4.4-1   c5.8,0,10.5,4.7,10.5,10.5c0,0.6,0.4,1,1,1h3.3c4,0,7.2,3.2,7.2,7.2C49,45.7,45.8,49,41.8,49z M50.8,40.1c-0.8-4.3-4.6-7.5-9-7.5   h-2.3C39,26.1,33.6,21,27,21c-1.2,0-2.5,0.2-3.7,0.6C24.9,13.1,32.3,7,41,7c0.4,0,0.9,0,1.3,0C39,9.2,37,12.9,37,17   c0,6.6,5.4,12,12,12c4.1,0,7.8-2,10-5.3c0,0.4,0,0.9,0,1.3C59,31.1,55.9,36.8,50.8,40.1z"/>
</g>
<g id="windy_night"/>
<g id="night_rain_thunder"/>
<g id="windy_rain"/>
<g id="temperature"/>
<g id="humidity"/>
<g id="air_pressure"/>
<g id="low_rainfall"/>
<g id="moderate_rainfall"/>
<g id="Sunset"/>
</svg>